<svg width="20" height="20" viewBox="0 0 20 20" fill="none" xmlns="http://www.w3.org/2000/svg">
<g id="Mark as Sold Icon">
<path id="Vector" d="M19.1943 9.36823C19.0118 9.0061 18.6098 8.90055 18.232 8.93457C17.7017 4.79547 14.1995 1.70007 9.99999 1.70007C7.06512 1.70007 4.31777 3.27737 2.83035 5.81659C2.71484 6.01373 2.68707 6.25314 2.75421 6.47317C2.82211 6.6961 2.98126 6.88196 3.19091 6.98297C3.58398 7.17218 4.04785 7.02859 4.27047 6.64911C5.46142 4.62259 7.6567 3.36374 9.99999 3.36374C13.2628 3.36374 16.0326 5.74045 16.5489 8.93457C16.2155 8.91349 15.9012 9.07026 15.7422 9.36823C15.5942 9.63968 15.6058 9.95676 15.7732 10.2168L16.7689 11.7634C16.9228 12.0022 17.1841 12.1449 17.4683 12.1449C17.7524 12.1449 18.0138 12.0022 18.1676 11.7632L19.1633 10.2168C19.3307 9.95676 19.3423 9.63968 19.1943 9.36823Z" fill="#087C7C"/>
<path id="Vector_2" d="M16.8089 13.0171C16.4158 12.8279 15.9521 12.9716 15.7293 13.351C14.5384 15.3775 12.3431 16.6364 9.9998 16.6364C6.73702 16.6364 3.96724 14.2596 3.45089 11.0655C3.78426 11.0866 4.09859 10.9298 4.25762 10.6319C4.40563 10.3604 4.39403 10.0433 4.22664 9.78332L3.23085 8.23669C3.07704 7.99789 2.81566 7.85522 2.53155 7.85522C2.24743 7.85522 1.98604 7.99789 1.83224 8.23685L0.836448 9.78332C0.669061 10.0433 0.657464 10.3604 0.805473 10.6319C0.987961 10.994 1.38996 11.0995 1.76785 11.0655C2.29809 15.2046 5.80029 18.3 9.99981 18.3C12.9347 18.3 15.682 16.7227 17.1695 14.1835C17.285 13.9864 17.3127 13.7469 17.2456 13.5269C17.1777 13.304 17.0185 13.1181 16.8089 13.0171Z" fill="#087C7C"/>
<path id="Vector_3" d="M9.1995 13.1536C9.46879 13.1541 9.72558 13.0259 9.88691 12.8101L13.3322 8.22192C13.47 8.03836 13.5281 7.81222 13.4959 7.58502C13.4636 7.35767 13.3447 7.15671 13.1613 7.01892C12.9779 6.88098 12.7517 6.82346 12.5241 6.85519C12.2969 6.88739 12.0958 7.00641 11.958 7.18997L9.10719 10.9861L7.96201 9.84119C7.62739 9.5061 7.08204 9.50626 6.7468 9.84119C6.41187 10.1763 6.41187 10.7215 6.7468 11.0565L8.59205 12.9018C8.75379 13.0637 8.97245 13.1536 9.1995 13.1536Z" fill="#087C7C"/>
</g>
</svg>
