<svg width="24" height="24" viewBox="0 0 24 24" fill="none" xmlns="http://www.w3.org/2000/svg">
<g id="Edit Icon" clip-path="url(#clip0_584_20128)">
<path id="edit" d="M6.80469 16.821L11.0047 16.807L20.1597 7.74098C20.5158 7.38355 20.7158 6.89955 20.7158 6.39498C20.7158 5.89041 20.5158 5.40641 20.1597 5.04898L18.6447 3.53898C18.283 3.19366 17.8022 3.00098 17.3022 3.00098C16.8021 3.00098 16.3213 3.19366 15.9597 3.53898L6.80469 12.611V16.821ZM17.3047 4.88498L18.8157 6.38498L17.2987 7.89798L15.7877 6.39798L17.3057 4.89798L17.3047 4.88498ZM8.70469 13.398L14.4397 7.71798L15.9507 9.22898L10.2157 14.902L8.70469 14.909V13.398Z" fill="white"/>
<path id="edit_2" d="M4.9 20.75H18.21C18.7139 20.75 19.1972 20.5498 19.5535 20.1935C19.9098 19.8371 20.11 19.3539 20.11 18.85V10.606L18.21 12.506V18.845H7.9C7.873 18.845 7.852 18.852 7.824 18.852C7.796 18.852 7.762 18.845 7.724 18.845H4.9V5.53696H11.413L13.313 3.63696H4.9C4.39609 3.63696 3.91282 3.83714 3.5565 4.19346C3.20018 4.54978 3 5.03305 3 5.53696V18.847C2.99961 19.0967 3.04846 19.3441 3.14377 19.575C3.23908 19.8058 3.37897 20.0157 3.55544 20.1924C3.73191 20.3692 3.9415 20.5094 4.17221 20.605C4.40292 20.7007 4.65024 20.75 4.9 20.75Z" fill="white"/>
</g>
<defs>
<clipPath id="clip0_584_20128">
<rect width="24" height="24" fill="white"/>
</clipPath>
</defs>
</svg>
