<svg width="18" height="18" viewBox="0 0 18 18" fill="none" xmlns="http://www.w3.org/2000/svg">
<mask id="mask0_2405_17579" style="mask-type:luminance" maskUnits="userSpaceOnUse" x="1" y="1" width="16" height="16">
<path d="M1 1H17V17H1V1Z" fill="white"/>
</mask>
<g mask="url(#mask0_2405_17579)">
<path d="M9.00026 8.16504L16.5806 3.33779C16.1568 2.72929 15.4526 2.33001 14.6565 2.33001H3.34402C2.54792 2.33001 1.8437 2.72929 1.41992 3.33779L9.00026 8.16504Z" fill="#087C7C"/>
<path d="M9.25178 9.11617C9.17497 9.16508 9.0875 9.18955 9 9.18955C8.9125 9.18955 8.825 9.16508 8.74822 9.11617L1.04603 4.21133C1.01597 4.36092 1 4.51548 1 4.67377V13.3262C1 14.6185 2.05141 15.6699 3.34375 15.6699H14.6562C15.9486 15.6699 17 14.6185 17 13.3262V4.67377C17 4.51548 16.984 4.36092 16.954 4.21136L9.25178 9.11617Z" fill="#087C7C"/>
</g>
</svg>
