<svg width="24" height="24" viewBox="0 0 24 24" fill="none" xmlns="http://www.w3.org/2000/svg"><path d="M2 7.64c0-1.083.307-2.005.966-2.661L4.102 6.13c-1.261 1.278-.159 5.252 3.443 8.903 3.603 3.651 7.523 4.768 8.785 3.49l1.136 1.152c-2.137 2.165-6.989.622-11.057-3.49C3.591 13.318 2 10.08 2 7.639" fill="#009A46"/><path d="M9.17 20.666c-1.068 0-1.977-.31-2.625-.979l1.136-1.152c1.262 1.279 5.182.162 8.784-3.49 3.603-3.65 4.705-7.624 3.444-8.903l1.136-1.152c2.136 2.166.613 7.084-3.443 11.207-2.83 2.857-6.034 4.47-8.432 4.47" fill="#FF5805"/><path d="M17.966 14.55c-.693-2.016-2.102-4.17-3.966-6.058C9.932 4.368 5.08 2.836 2.944 4.99c-.148.161-.012.542.295.853s.693.449.84.299c1.262-1.278 5.183-.161 8.785 3.49 1.704 1.728 2.977 3.663 3.59 5.448.535 1.566.49 2.833-.136 3.467-.147.15-.022.53.296.852.318.323.693.45.84.3 1.092-1.118 1.274-2.949.512-5.149" fill="#F5AFCB"/><path d="M21.034 4.99c-1.091-1.105-2.898-1.29-5.069-.53-1.988.703-4.113 2.131-5.977 4.02-4.068 4.124-5.58 9.042-3.443 11.207.148.15.534.023.84-.3.308-.322.444-.702.296-.852-1.261-1.278-.159-5.252 3.443-8.903 1.705-1.728 3.614-3.018 5.364-3.64 1.546-.541 2.796-.495 3.42.139.148.15.523.023.841-.3.319-.322.444-.68.285-.84" fill="#FF9B00"/></svg>