<svg width="16" height="16" viewBox="0 0 16 16" fill="none" xmlns="http://www.w3.org/2000/svg">
<g id="Property Type Icon" clip-path="url(#clip0_2577_3714)">
<path id="about" d="M1.3335 8.3929V7.61157C1.34349 7.57481 1.35085 7.5374 1.35551 7.49959C1.41318 6.57915 1.67311 5.68276 2.11682 4.87427C2.58672 3.97741 3.25731 3.20107 4.07633 2.60579C4.89536 2.01052 5.84072 1.61233 6.83883 1.44222C7.09283 1.39355 7.35216 1.37158 7.6095 1.33691H8.39083C8.42385 1.34634 8.45749 1.35345 8.4915 1.35824C9.41299 1.41144 10.3108 1.67065 11.1189 2.11686C12.1545 2.6515 13.0282 3.45346 13.6495 4.43953C14.2708 5.42561 14.617 6.55991 14.6522 7.72485C14.7363 9.01724 14.4121 10.3034 13.7255 11.4015C13.1691 12.3628 12.3769 13.1664 11.4237 13.7363C10.4704 14.3063 9.3876 14.6237 8.27751 14.6589C7.09162 14.7326 5.90949 14.4645 4.8715 13.8862C3.97357 13.4171 3.19628 12.7467 2.60034 11.9275C2.0044 11.1082 1.60594 10.1623 1.43616 9.16357C1.39016 8.90891 1.36683 8.65024 1.3335 8.3929ZM9.49418 11.2242C9.29418 11.2669 9.11485 11.3202 8.93152 11.3416C8.41285 11.4009 8.1855 11.1715 8.2795 10.6622C8.35283 10.2669 8.46216 9.87821 8.55949 9.48755C8.73459 8.95697 8.85893 8.41101 8.93083 7.85693C8.95533 7.63346 8.90642 7.40802 8.79142 7.21484C8.67643 7.02167 8.50163 6.87121 8.2935 6.78621C8.00499 6.67409 7.69198 6.6403 7.38619 6.68823C6.96805 6.76312 6.56059 6.88873 6.17285 7.06226C6.14685 7.07226 6.11083 7.09153 6.10616 7.11352C6.06883 7.25152 6.03952 7.39223 6.00085 7.54956L6.24752 7.47021C6.45793 7.39836 6.6837 7.38408 6.90149 7.42887C7.07682 7.46621 7.18217 7.55226 7.19084 7.73226C7.20635 7.94304 7.19336 8.15492 7.15218 8.36222C7.04751 8.81822 6.9155 9.26688 6.78817 9.71688C6.65737 10.1166 6.57586 10.5307 6.54549 10.9502C6.53128 11.1641 6.58543 11.377 6.70011 11.558C6.8148 11.7391 6.9841 11.879 7.18351 11.9576C7.52214 12.1011 7.89788 12.1322 8.25549 12.0462C8.62223 11.9443 8.9836 11.8239 9.33818 11.6855C9.35179 11.6804 9.36417 11.6725 9.37451 11.6623C9.38485 11.652 9.39289 11.6398 9.39815 11.6262C9.43349 11.4929 9.46485 11.3596 9.49418 11.2262V11.2242ZM8.60482 3.89087C8.48131 3.90864 8.3589 3.93341 8.23816 3.96493C8.10047 4.00525 7.97411 4.07709 7.86906 4.1748C7.76401 4.27252 7.68317 4.39341 7.63302 4.52783C7.58286 4.66225 7.56476 4.80649 7.58012 4.94914C7.59548 5.09178 7.6439 5.22887 7.72152 5.34953C7.83315 5.51952 7.99291 5.65239 8.18042 5.73112C8.36793 5.80985 8.57465 5.83093 8.77417 5.79158C9.02379 5.7572 9.24989 5.62612 9.40377 5.42659C9.55765 5.22707 9.627 4.97501 9.59684 4.72485C9.55575 4.49143 9.43399 4.27991 9.25281 4.12712C9.07162 3.97432 8.84252 3.89001 8.60551 3.88892L8.60482 3.89087Z" fill="#087C7C"/>
</g>
<defs>
<clipPath id="clip0_2577_3714">
<rect width="16" height="16" fill="white"/>
</clipPath>
</defs>
</svg>
