<svg width="18" height="18" viewBox="0 0 18 18" fill="none" xmlns="http://www.w3.org/2000/svg">
<g id="Group">
<path id="Vector" d="M13.3398 15.2383V15.9767C13.3398 16.0638 13.2946 16.1451 13.2195 16.1893C10.6335 17.7133 7.37073 17.7161 4.77997 16.1893C4.70494 16.1451 4.65967 16.0638 4.65967 15.9767V15.2383C4.65967 14.6574 5.02875 14.1404 5.57768 13.9515L6.77082 13.5411C6.83131 13.5203 6.898 13.5437 6.93259 13.5975C7.89883 15.1005 10.107 15.104 11.0769 13.6007C11.1115 13.547 11.1782 13.5237 11.2386 13.5445L12.4218 13.9515C12.9708 14.1404 13.3398 14.6574 13.3398 15.2383Z" fill="#087C7C"/>
<path id="Vector_2" d="M14.3012 15.43C14.1398 15.5635 13.8954 15.448 13.8954 15.2383C13.8954 14.4203 13.3759 13.6923 12.6024 13.4262L11.3056 12.98C10.8588 12.8263 10.5275 12.4516 10.421 12.004C10.4061 11.9416 10.4339 11.8765 10.4908 11.8471C11.4571 11.3475 12.144 10.3791 12.2492 9.24409C12.2583 9.14528 12.3178 9.05695 12.4091 9.01816C12.7928 8.85532 13.0621 8.47881 13.0621 8.04133V7.06013C13.0621 6.87805 13.237 6.74972 13.412 6.80017C13.7141 6.88732 14.0355 6.8742 14.3324 6.76129C14.3978 6.73639 14.4693 6.73639 14.5348 6.76125C15.1776 7.00565 15.8944 6.77021 16.2693 6.1969C16.3385 6.09104 16.4287 6.08309 16.5159 6.05382C16.6574 6.00632 16.8106 6.0801 16.8602 6.22086C18.0015 9.45505 17.0516 13.1541 14.3012 15.43Z" fill="#087C7C"/>
<path id="Vector_3" d="M17.0769 2.87206L17.0248 2.8179C16.9498 2.74047 16.9154 2.63457 16.9304 2.52798L16.9411 2.45333C17.0095 1.96863 16.6856 1.52247 16.2033 1.43775L16.129 1.4249C16.0228 1.40616 15.9329 1.34088 15.8825 1.24575L15.8471 1.17908C15.6176 0.74681 15.0933 0.576332 14.6531 0.791253L14.5857 0.824237C14.4888 0.871805 14.3777 0.871805 14.2808 0.824237L14.2131 0.791253C13.7732 0.576332 13.2489 0.74681 13.0194 1.17908L12.984 1.24575C12.9337 1.34088 12.8438 1.40616 12.7375 1.4249L12.6632 1.43775C12.1809 1.52247 11.857 1.96863 11.9254 2.45333L11.9362 2.52798C11.9511 2.63457 11.9167 2.74047 11.8417 2.8179L11.7896 2.87206C11.449 3.22378 11.449 3.77549 11.7896 4.12721L11.8417 4.18138C11.9167 4.25881 11.9511 4.3647 11.9362 4.4713L11.9254 4.54595C11.857 5.03065 12.1809 5.47681 12.6632 5.56152L12.7375 5.57437C12.8438 5.59312 12.9337 5.65839 12.984 5.75353L13.0194 5.81985C13.1816 6.12608 13.4916 6.30073 13.8149 6.30073C14.0202 6.30073 14.1505 6.23879 14.2808 6.17504C14.3778 6.12761 14.4888 6.12747 14.5857 6.17504L14.6534 6.20802C15.0933 6.42294 15.6176 6.25247 15.8471 5.81985L15.8825 5.75353C15.9329 5.65839 16.0228 5.59312 16.129 5.57437L16.2033 5.56152C16.6856 5.47681 17.0095 5.03065 16.9411 4.54595L16.9304 4.4713C16.9154 4.3647 16.9498 4.25881 17.0248 4.18138L17.0769 4.12721C17.4175 3.77549 17.4175 3.22378 17.0769 2.87206ZM15.6929 2.9981L14.3381 4.53102C14.2314 4.6516 14.0459 4.65577 13.9336 4.54351L13.4344 4.04423C13.326 3.93556 13.326 3.75987 13.4344 3.65119C13.543 3.54287 13.7187 3.54287 13.827 3.65119L14.1177 3.94181L15.2766 2.63006C15.3784 2.51513 15.5537 2.50437 15.6686 2.60575C15.7836 2.70749 15.7943 2.88317 15.6929 2.9981Z" fill="#087C7C"/>
<path id="Vector_4" d="M11.708 6.97955C11.708 7.2252 11.7081 8.696 11.708 8.94162C11.7075 10.4374 10.4907 11.6543 8.99666 11.6543C7.50506 11.6543 6.29157 10.4346 6.29053 8.93606V6.97643C6.29126 6.33024 6.8129 5.8053 7.4627 5.8053H10.5393C11.1837 5.80565 11.708 6.33236 11.708 6.97955Z" fill="#087C7C"/>
<path id="Vector_5" d="M11.393 5.20658C11.4254 5.3165 11.3153 5.41469 11.2086 5.37271C11.0072 5.29345 10.7825 5.24984 10.5394 5.24984H7.46142C6.51052 5.24984 5.73583 6.01939 5.7351 6.97615V8.09346C5.7351 8.22366 5.53824 8.23408 5.52886 8.10422C5.52671 8.08044 5.52748 8.27678 5.52748 5.14359C5.52748 4.84742 5.76948 4.60646 6.06669 4.60646C6.18022 4.60646 6.2823 4.53737 6.32466 4.43217C6.64965 3.62109 7.42565 3.09716 8.30131 3.09716C10.5782 3.09716 10.533 3.08188 10.821 3.14299C10.9227 3.16451 10.9942 3.25965 10.9842 3.36346C10.9488 3.73845 11.0595 4.12454 11.3171 4.43251C11.3512 4.47279 11.372 4.52556 11.364 4.57765C11.3274 4.82159 11.3407 5.0294 11.393 5.20658Z" fill="#087C7C"/>
<path id="Vector_6" d="M12.5067 6.25428C12.5067 7.52127 12.5073 8.04882 12.5056 8.07399C12.4949 8.22746 12.2636 8.21496 12.2636 8.06149V6.98064C12.2638 6.70499 12.2056 6.44417 12.098 6.21262C12.0463 6.10144 12.1575 5.98391 12.2726 6.02613C12.3024 6.03707 12.3325 6.04745 12.3629 6.05738C12.4483 6.08554 12.5067 6.16435 12.5067 6.25428Z" fill="#087C7C"/>
<path id="Vector_7" d="M10.5658 13.3643C9.80827 14.4416 8.19511 14.4392 7.44129 13.3577C7.40073 13.2996 7.41209 13.219 7.46684 13.174C7.76606 12.928 7.98546 12.595 8.09223 12.2207C8.11247 12.1497 8.18532 12.1081 8.25719 12.1249C8.72925 12.2355 9.2419 12.241 9.739 12.1247C9.81059 12.1079 9.88326 12.1492 9.90371 12.2199C10.0129 12.5972 10.2365 12.933 10.5399 13.1797C10.5953 13.2248 10.6068 13.306 10.5658 13.3643Z" fill="#087C7C"/>
<path id="Vector_8" d="M11.5914 1.07564C11.7287 1.12043 11.7814 1.28951 11.6898 1.40118C11.4562 1.68589 11.3387 2.04872 11.364 2.4221C11.3731 2.55717 11.2436 2.67945 11.0963 2.63859C10.8682 2.57529 10.6279 2.54154 10.38 2.54154H8.30123C7.28721 2.54154 6.37899 3.0994 5.91991 3.9828C5.89269 4.03519 5.84346 4.07179 5.78634 4.08689C5.319 4.21049 4.9735 4.63572 4.97187 5.14004V8.06977C4.97187 8.49075 5.22678 8.85563 5.59073 9.01632C5.68055 9.05597 5.73916 9.14309 5.74825 9.24086C5.85374 10.3769 6.53989 11.3465 7.5047 11.8466C7.5613 11.876 7.58897 11.9405 7.5746 12.0026C7.47095 12.4509 7.14125 12.8262 6.69366 12.98L5.39685 13.4262C4.62341 13.6922 4.10385 14.4201 4.10385 15.2382C4.10385 15.448 3.85928 15.5634 3.69769 15.4296C1.79104 13.8518 0.666539 11.536 0.666504 8.99965C0.666469 4.43614 4.35575 0.666626 8.99946 0.666626C9.89335 0.666626 10.7657 0.806411 11.5914 1.07564Z" fill="#087C7C"/>
</g>
</svg>
