<svg width="24" height="24" viewBox="0 0 24 24" fill="none" xmlns="http://www.w3.org/2000/svg">
<g id="properties 2" clip-path="url(#clip0_2988_3396)">
<path id="Path 50" d="M7.66904 2.00101H13.94C14.0687 2.04183 14.181 2.1224 14.261 2.23111C14.341 2.33982 14.3844 2.47104 14.385 2.60599C14.385 2.74299 14.385 2.87902 14.385 3.01602C14.385 3.26102 14.385 3.50494 14.385 3.75894H17.83C18.37 3.75894 18.579 3.95895 18.579 4.48795C18.579 6.90928 18.579 9.33096 18.579 11.753V11.959L18.634 11.993C18.734 11.893 18.822 11.781 18.923 11.682C18.9814 11.6046 19.0569 11.5417 19.1437 11.4984C19.2305 11.4552 19.3261 11.4326 19.423 11.4326C19.52 11.4326 19.6156 11.4552 19.7024 11.4984C19.7892 11.5417 19.8647 11.6046 19.923 11.682C20.523 12.2707 21.1257 12.86 21.731 13.45C21.8138 13.5055 21.8815 13.5805 21.9284 13.6684C21.9753 13.7563 21.9998 13.8544 21.9998 13.954C21.9998 14.0536 21.9753 14.1516 21.9284 14.2395C21.8815 14.3274 21.8138 14.4025 21.731 14.458C20.731 15.4387 19.7277 16.4186 18.721 17.398C18.6727 17.4401 18.6344 17.4925 18.609 17.5513C18.5835 17.6101 18.5716 17.6739 18.574 17.7379C18.58 18.9289 18.574 20.12 18.574 21.312C18.574 21.786 18.35 22.005 17.868 22.005H3.71405C3.23505 22.005 3.00105 21.779 3.00105 21.313C3.00105 15.695 3.00105 10.077 3.00105 4.45901C2.98656 4.36305 2.99494 4.26499 3.02552 4.17288C3.05611 4.08077 3.10803 3.99722 3.17704 3.92899C3.24606 3.86075 3.33022 3.80972 3.42267 3.78018C3.51512 3.75065 3.61325 3.74336 3.70905 3.75894H7.19505C7.19505 3.40694 7.20605 3.076 7.19505 2.746C7.17162 2.58562 7.2066 2.42218 7.2936 2.28543C7.38061 2.14868 7.51385 2.04774 7.66904 2.00101ZM4.21005 20.8159H17.361V18.7021C17.2651 18.8405 17.1319 18.9489 16.9769 19.0149C16.8219 19.0809 16.6514 19.1018 16.485 19.075C15.953 19.061 15.42 19.075 14.885 19.075C14.7914 19.089 14.6957 19.0811 14.6056 19.052C14.5155 19.0229 14.4333 18.9734 14.3656 18.9073C14.2978 18.8411 14.2462 18.7602 14.2149 18.6708C14.1836 18.5814 14.1734 18.486 14.185 18.392C14.185 17.825 14.191 17.259 14.185 16.692C14.1804 16.5716 14.2022 16.4515 14.249 16.3404C14.2959 16.2293 14.3665 16.1298 14.456 16.049C15.388 15.149 16.311 14.236 17.243 13.333C17.2908 13.2907 17.3286 13.2381 17.3535 13.1792C17.3784 13.1204 17.3899 13.0568 17.387 12.993C17.383 10.3823 17.383 7.77171 17.387 5.16104V4.94803H14.387C14.387 5.31903 14.387 5.67599 14.387 6.03299C14.3968 6.1239 14.3857 6.21584 14.3545 6.30179C14.3233 6.38774 14.2729 6.46548 14.2071 6.52896C14.1413 6.59244 14.0618 6.64003 13.9748 6.66812C13.8878 6.69621 13.7955 6.70397 13.705 6.69095H7.89305C7.79882 6.70515 7.70258 6.69731 7.61194 6.66788C7.52131 6.63845 7.43877 6.58824 7.37085 6.52139C7.30294 6.45455 7.25152 6.3729 7.22066 6.28275C7.1898 6.19259 7.18034 6.09643 7.19305 6.00198C7.19305 5.65198 7.19305 5.30205 7.19305 4.94705H4.20704L4.21005 20.8159ZM13.179 3.189H8.40705V5.50406H13.18L13.179 3.189ZM15.384 17.899C15.716 17.899 16.021 17.892 16.326 17.899C16.3876 17.9028 16.4492 17.8929 16.5063 17.8697C16.5634 17.8465 16.6146 17.8107 16.656 17.765C17.904 16.5384 19.1547 15.3136 20.408 14.091C20.454 14.046 20.496 13.998 20.518 13.975L19.395 12.875C19.403 12.87 19.41 12.869 19.395 12.875C18.081 14.1577 16.768 15.4407 15.456 16.724C15.4152 16.7643 15.39 16.8178 15.385 16.875C15.381 17.209 15.384 17.54 15.384 17.899Z" fill="#087C7C"/>
<path id="Path 51" d="M7.72001 10.7861C7.25301 10.8041 6.99901 10.652 6.92001 10.319C6.88252 10.1838 6.8936 10.0398 6.95133 9.91193C7.00907 9.78404 7.1098 9.68039 7.23601 9.61908C8.34401 9.05908 9.45701 8.50501 10.568 7.95001C10.662 7.90382 10.7661 7.88172 10.8708 7.88556C10.9755 7.8894 11.0776 7.91915 11.168 7.97211C12.2413 8.51011 13.3147 9.04769 14.388 9.58502C14.5344 9.64066 14.6546 9.74933 14.7246 9.88947C14.7946 10.0296 14.8094 10.191 14.7659 10.3415C14.7225 10.492 14.624 10.6206 14.4901 10.7018C14.3561 10.7831 14.1966 10.8111 14.043 10.7801C14.023 10.7801 14.002 10.7801 13.954 10.7801V11.0001C13.954 11.8707 13.954 12.7418 13.954 13.6131C13.9663 13.7082 13.9566 13.8047 13.9259 13.8956C13.8951 13.9864 13.8441 14.0691 13.7765 14.1371C13.709 14.2052 13.6269 14.257 13.5363 14.2885C13.4458 14.32 13.3492 14.3305 13.254 14.319H8.43401C8.33694 14.331 8.23843 14.3206 8.14601 14.2886C8.05359 14.2567 7.96971 14.204 7.9008 14.1346C7.83189 14.0652 7.77977 13.9809 7.74843 13.8882C7.7171 13.7956 7.70737 13.697 7.72001 13.6C7.72001 12.7334 7.72001 11.8695 7.72001 11.0081V10.7861ZM8.96501 13.0671H10.211C10.211 12.8671 10.211 12.6751 10.211 12.4841C10.2085 12.3992 10.223 12.3147 10.2538 12.2357C10.2846 12.1566 10.331 12.0845 10.3903 12.0237C10.4496 11.963 10.5205 11.9148 10.5988 11.882C10.677 11.8493 10.7611 11.8326 10.846 11.8331C10.9293 11.8344 11.0114 11.8525 11.0875 11.8863C11.1636 11.9201 11.2321 11.9689 11.2889 12.0297C11.3458 12.0906 11.3898 12.1623 11.4183 12.2405C11.4468 12.3188 11.4593 12.4019 11.455 12.485C11.455 12.676 11.455 12.868 11.455 13.064H12.7C12.7 12.111 12.7 11.1721 12.694 10.2331C12.694 10.1801 12.622 10.1071 12.566 10.0781C12.0327 9.8034 11.496 9.5347 10.956 9.27203C10.9202 9.25713 10.8818 9.24945 10.843 9.24945C10.8042 9.24945 10.7658 9.25713 10.73 9.27203C10.1773 9.5387 9.62834 9.81377 9.08301 10.0971C9.05184 10.1175 9.02549 10.1444 9.0058 10.176C8.98611 10.2076 8.97356 10.2431 8.96901 10.2801C8.95601 10.5421 8.96401 10.8051 8.96401 11.0671L8.96501 13.0671Z" fill="#087C7C"/>
<path id="Path 52" d="M10.8019 16.7481C10.2769 16.7481 9.75192 16.7481 9.22792 16.7481C9.14072 16.758 9.0524 16.7494 8.96869 16.723C8.88499 16.6966 8.80778 16.6529 8.74206 16.5947C8.67634 16.5366 8.6236 16.4653 8.58724 16.3854C8.55088 16.3055 8.53173 16.2189 8.53103 16.1311C8.53032 16.0434 8.54808 15.9565 8.58315 15.876C8.61821 15.7955 8.66981 15.7233 8.73459 15.6641C8.79936 15.6049 8.87586 15.5599 8.95913 15.5321C9.0424 15.5044 9.13057 15.4945 9.21792 15.5031C10.2846 15.5031 11.3479 15.5031 12.4079 15.5031C12.4944 15.4961 12.5814 15.5073 12.6633 15.5358C12.7453 15.5643 12.8204 15.6095 12.8839 15.6686C12.9474 15.7277 12.9979 15.7995 13.0322 15.8792C13.0664 15.9589 13.0837 16.0449 13.083 16.1316C13.0822 16.2184 13.0634 16.304 13.0277 16.3831C12.992 16.4622 12.9403 16.533 12.8757 16.591C12.8112 16.649 12.7353 16.6928 12.6529 16.7199C12.5704 16.7469 12.4833 16.7565 12.3969 16.7481C11.8649 16.7491 11.3339 16.7481 10.8019 16.7481Z" fill="#087C7C"/>
<path id="Path 53" d="M10.8129 18.8869C10.2809 18.8869 9.74993 18.8869 9.21293 18.8869C9.1262 18.8961 9.03851 18.8871 8.95548 18.8604C8.87246 18.8337 8.79595 18.7898 8.73087 18.7318C8.66579 18.6737 8.61359 18.6027 8.57761 18.5233C8.54164 18.4438 8.52269 18.3577 8.52199 18.2705C8.52129 18.1832 8.53885 18.0968 8.57354 18.0168C8.60824 17.9368 8.65929 17.865 8.72343 17.8059C8.78756 17.7468 8.86336 17.7017 8.94594 17.6737C9.02852 17.6456 9.11607 17.6352 9.20293 17.643C10.2729 17.643 11.3433 17.643 12.4139 17.643C12.4998 17.6369 12.5861 17.6487 12.6672 17.6776C12.7484 17.7064 12.8227 17.7518 12.8854 17.8107C12.9482 17.8697 12.998 17.941 13.0319 18.0202C13.0657 18.0994 13.0828 18.1848 13.082 18.271C13.0813 18.3571 13.0627 18.4421 13.0274 18.5207C12.9922 18.5993 12.9411 18.6697 12.8773 18.7276C12.8135 18.7855 12.7384 18.8295 12.6568 18.8569C12.5752 18.8843 12.4887 18.8945 12.4029 18.8869C11.8759 18.8889 11.3439 18.8869 10.8129 18.8869Z" fill="#087C7C"/>
</g>
<defs>
<clipPath id="clip0_2988_3396">
<rect width="24" height="24" fill="white"/>
</clipPath>
</defs>
</svg>
