<svg width="24" height="24" viewBox="0 0 24 24" fill="none" xmlns="http://www.w3.org/2000/svg">
<g id="Location Icon" clip-path="url(#clip0_584_20141)">
<path id="location" d="M12 8.18198C11.2449 8.18198 10.5067 8.4059 9.87883 8.82543C9.25097 9.24495 8.7616 9.84124 8.47263 10.5389C8.18365 11.2365 8.10804 12.0042 8.25536 12.7448C8.40268 13.4855 8.76631 14.1658 9.30027 14.6997C9.83422 15.2337 10.5145 15.5973 11.2551 15.7446C11.9958 15.8919 12.7634 15.8163 13.4611 15.5273C14.1587 15.2384 14.755 14.749 15.1746 14.1211C15.5941 13.4933 15.818 12.7551 15.818 12C15.8181 11.4986 15.7195 11.002 15.5276 10.5387C15.3358 10.0755 15.0546 9.65451 14.7 9.29995C14.3455 8.94539 13.9245 8.66416 13.4612 8.47234C12.998 8.28051 12.5014 8.18184 12 8.18198ZM20.534 11.046C20.3179 9.11075 19.4504 7.30646 18.0737 5.92927C16.6971 4.55208 14.8931 3.68381 12.958 3.46698V1.50098H11.045V3.46698C9.10932 3.68318 7.30468 4.55117 5.92743 5.92841C4.55019 7.30566 3.6822 9.11029 3.466 11.046H1.5V12.959H3.466C3.6822 14.8947 4.55019 16.6993 5.92743 18.0765C7.30468 19.4538 9.10932 20.3218 11.045 20.538V22.504H12.958V20.534C14.8924 20.3171 16.6956 19.4493 18.072 18.0729C19.4483 16.6966 20.3161 14.8933 20.533 12.959H22.499V11.046H20.534ZM12 18.682C10.6784 18.682 9.38653 18.2901 8.28768 17.5559C7.18883 16.8216 6.33238 15.778 5.82664 14.5571C5.32089 13.3361 5.18857 11.9926 5.44639 10.6964C5.70422 9.4002 6.34062 8.20958 7.27511 7.27509C8.20961 6.34059 9.40023 5.7042 10.6964 5.44637C11.9926 5.18854 13.3361 5.32087 14.5571 5.82661C15.7781 6.33236 16.8217 7.18881 17.5559 8.28766C18.2901 9.38651 18.682 10.6784 18.682 12C18.6827 12.8777 18.5103 13.7469 18.1747 14.5578C17.8391 15.3688 17.347 16.1057 16.7264 16.7263C16.1057 17.3469 15.3689 17.8391 14.5579 18.1747C13.7469 18.5102 12.8777 18.6826 12 18.682Z" fill="#087C7C"/>
</g>
<defs>
<clipPath id="clip0_584_20141">
<rect width="24" height="24" fill="white"/>
</clipPath>
</defs>
</svg>
