<svg width="28" height="43" viewBox="0 0 28 43" fill="none" xmlns="http://www.w3.org/2000/svg"><g clip-path="url(#a)"><path d="M28 14.288C28 22.178 14 43 14 43S0 22.179 0 14.288 6.268 0 14 0s14 6.397 14 14.288" fill="#FC670A"/><path d="M18.653 18.407c2.57-2.623 2.57-6.875 0-9.498a6.487 6.487 0 0 0-9.306 0c-2.57 2.623-2.57 6.875 0 9.498a6.487 6.487 0 0 0 9.306 0" fill="#fff"/><path d="M2.4 15.543C2.4 8.688 7.845 3.13 14.56 3.13c3.927 0 7.417 1.9 9.641 4.846-2.1-3.72-6.036-6.226-10.546-6.226-6.717 0-12.162 5.557-12.162 12.412 0 2.848.94 5.471 2.522 7.566A12.55 12.55 0 0 1 2.4 15.543" fill="#FC670A"/><path d="M2.4 15.543C2.4 8.688 7.845 3.13 14.56 3.13c3.927 0 7.417 1.9 9.641 4.846-2.1-3.72-6.036-6.226-10.546-6.226-6.717 0-12.162 5.557-12.162 12.412 0 2.848.94 5.471 2.522 7.566A12.55 12.55 0 0 1 2.4 15.543" fill="#fff" fill-opacity=".2"/><path d="M10.699 37.535A203 203 0 0 0 14 43s14-20.821 14-28.712q-.002-.621-.055-1.229a35 35 0 0 1-2.293 6.364c-2.65 5.63-6.568 9.237-10.742 13.804a81 81 0 0 1-4.212 4.309z" fill="#FC670A"/><path d="M10.699 37.535A203 203 0 0 0 14 43s14-20.821 14-28.712q-.002-.621-.055-1.229a35 35 0 0 1-2.293 6.364c-2.65 5.63-6.568 9.237-10.742 13.804a81 81 0 0 1-4.212 4.309z" fill="#000" fill-opacity=".1"/></g><defs><clipPath id="a"><path fill="#fff" d="M0 0h28v43H0z"/></clipPath></defs></svg>