<svg width="377" height="645" viewBox="0 0 377 645" fill="none" xmlns="http://www.w3.org/2000/svg">
<g clip-path="url(#clip0_2318_10643)">
<path d="M0 503.491V10C0 -1.04569 8.95431 -10 20 -10H357C368.046 -10 377 -1.04572 377 9.99997V503.521C377 510.746 373.104 517.409 366.808 520.951L198.782 615.496C192.706 618.915 185.289 618.923 179.206 615.518L10.2319 520.943C3.91353 517.407 0 510.731 0 503.491Z" fill="#087C7C" fill-opacity="0.5"/>
<path d="M0 493.491V0C0 -11.0457 8.95431 -20 20 -20H357C368.046 -20 377 -11.0457 377 -2.67029e-05V493.521C377 500.746 373.104 507.409 366.808 510.951L198.782 605.496C192.706 608.915 185.289 608.923 179.206 605.518L10.2319 510.943C3.91353 507.407 0 500.731 0 493.491Z" fill="#087C7C"/>
</g>
<defs>
<clipPath id="clip0_2318_10643">
<rect width="377" height="645" fill="white"/>
</clipPath>
</defs>
</svg>
