<svg width="24" height="24" viewBox="0 0 24 24" fill="none" xmlns="http://www.w3.org/2000/svg">
<path d="M12.7686 3.24413L13.5002 1.9065L14.2319 3.24413C14.2664 3.30752 14.3185 3.35961 14.3819 3.39413L15.7188 4.125L14.3811 4.85663C14.3177 4.89115 14.2656 4.94323 14.2311 5.00663L13.5002 6.3435L12.7686 5.00588C12.7341 4.94248 12.682 4.8904 12.6186 4.85588L11.2817 4.125L12.6194 3.39338C12.6824 3.35894 12.7342 3.30714 12.7686 3.24413Z" fill="#087C7C"/>
<path d="M2.426 2.65163L2.83363 1.9065L3.24125 2.65163C3.27578 2.71502 3.32786 2.76711 3.39125 2.80163L4.13525 3.2085L3.39013 3.61613C3.32673 3.65065 3.27465 3.70273 3.24013 3.76613L2.8325 4.51125L2.42488 3.76613C2.39036 3.70273 2.33827 3.65065 2.27488 3.61613L1.52975 3.2085L2.27675 2.80088C2.33977 2.76644 2.39157 2.71464 2.426 2.65163Z" fill="#087C7C"/>
<path d="M4.6761 13.1516L5.08372 12.4065L5.49135 13.1516C5.52587 13.215 5.57796 13.2671 5.64135 13.3016L6.38647 13.7093L5.64135 14.1169C5.57796 14.1514 5.52587 14.2035 5.49135 14.2669L5.08372 15.012L4.6761 14.2669C4.64158 14.2035 4.58949 14.1514 4.5261 14.1169L3.78098 13.7093L4.5261 13.3016C4.58949 13.2671 4.64158 13.215 4.6761 13.1516Z" fill="#087C7C"/>
<path d="M9.83266 12.8588L12.4839 10.2075L21.9864 19.71C22.0563 19.7803 22.0955 19.8753 22.0955 19.9744C22.0955 20.0734 22.0563 20.1685 21.9864 20.2388L19.8639 22.3613C19.7937 22.4311 19.6986 22.4703 19.5995 22.4703C19.5005 22.4703 19.4054 22.4311 19.3352 22.3613L9.83266 12.8588Z" fill="#087C7C"/>
<path d="M10.3652 8.085L7.71024 10.74L4.26398 7.29C4.19414 7.21974 4.15494 7.1247 4.15494 7.02563C4.15494 6.92656 4.19414 6.83151 4.26398 6.76125L6.38648 4.63875C6.45675 4.56891 6.55179 4.52971 6.65086 4.52971C6.74993 4.52971 6.84497 4.56891 6.91523 4.63875L10.3652 8.085Z" fill="#087C7C"/>
<path d="M11.9575 9.67929L10.8965 8.61826L8.2455 11.2692L9.30653 12.3303L11.9575 9.67929Z" fill="#087C7C"/>
</svg>
