<svg width="24" height="24" viewBox="0 0 24 24" fill="none" xmlns="http://www.w3.org/2000/svg"><path d="M18.382 3.54c-.923-1.04-2.591-1.487-4.725-1.487H7.463a.884.884 0 0 0-.876.74L4.01 18.968a.528.528 0 0 0 .525.608h3.824l.96-6.024-.03.189a.88.88 0 0 1 .873-.74h1.817c3.569 0 6.364-1.434 7.18-5.581q.037-.184.064-.36-.155-.08 0 0c.243-1.532-.002-2.576-.84-3.52" fill="#27346A"/><path d="M10.78 6.509a.8.8 0 0 1 .336-.075h4.855q.864-.001 1.601.115a7 7 0 0 1 .978.231q.361.119.672.28c.243-1.533-.002-2.576-.84-3.52-.924-1.04-2.591-1.487-4.725-1.487H7.463a.884.884 0 0 0-.876.74L4.01 18.968a.527.527 0 0 0 .524.607h3.825L10.35 7.081a.77.77 0 0 1 .43-.572" fill="#27346A"/><path d="M19.159 7.42c-.817 4.147-3.612 5.58-7.181 5.58H10.16a.88.88 0 0 0-.872.74l-1.194 7.49a.462.462 0 0 0 .459.532h3.223a.77.77 0 0 0 .766-.648l.031-.162.608-3.808.039-.21a.77.77 0 0 1 .765-.647h.483c3.122 0 5.567-1.255 6.282-4.883.298-1.516.143-2.782-.645-3.67a3.1 3.1 0 0 0-.883-.674q-.028.175-.063.359" fill="#2790C3"/><path d="M18.368 6.724a6 6 0 0 0-.795-.174 10 10 0 0 0-1.602-.116h-4.854a.77.77 0 0 0-.766.648l-1.032 6.47-.03.189a.88.88 0 0 1 .872-.74h1.818c3.569 0 6.364-1.434 7.18-5.581q.037-.184.064-.36a4.4 4.4 0 0 0-.855-.336" fill="#1F264F"/></svg>