<svg width="24" height="24" viewBox="0 0 24 24" fill="none" xmlns="http://www.w3.org/2000/svg"><path fill="#09A4DA" d="M11.99 11.34H3.21a1.1 1.1 0 0 1-.886-.313 1.07 1.07 0 0 1-.314-.874V8.589a1.07 1.07 0 0 1 .32-.85 1.1 1.1 0 0 1 .866-.31h17.609a1.1 1.1 0 0 1 .874.315 1.07 1.07 0 0 1 .315.863v1.517a1.08 1.08 0 0 1-.31.9 1.11 1.11 0 0 1-.91.316zm-.48 1.32h8.237a1.065 1.065 0 0 1 1.13.698c.053.15.07.31.05.468v1.655a1.02 1.02 0 0 1-.303.786 1.05 1.05 0 0 1-.8.3H3.127a1.1 1.1 0 0 1-.814-.317 1.06 1.06 0 0 1-.31-.807v-1.632a1.07 1.07 0 0 1 .313-.839 1.1 1.1 0 0 1 .85-.314zm-.023-6.549H3.22a1.1 1.1 0 0 1-.9-.311 1.07 1.07 0 0 1-.312-.888v-1.54a1.1 1.1 0 0 1 .326-.86 1.13 1.13 0 0 1 .872-.323h16.556a1.1 1.1 0 0 1 .853.307 1.06 1.06 0 0 1 .316.838v1.61a1.03 1.03 0 0 1-.297.866 1.07 1.07 0 0 1-.881.299zm-3.786 15.7h-4.43a1.12 1.12 0 0 1-1.26-1.266v-1.517a1.067 1.067 0 0 1 1.133-1.137h9.152a1.024 1.024 0 0 1 1.108 1.118v1.634a1.072 1.072 0 0 1-1.177 1.168q-2.264.003-4.526 0"/></svg>