<svg xmlns="http://www.w3.org/2000/svg" width="20" height="19.999" viewBox="0 0 20 19.999">
  <path id="plus_btn" d="M164.471,523.388a1.037,1.037,0,0,1-.759-.783,1.612,1.612,0,0,1-.022-.31q0-3.836,0-7.672v-.258h-.238c-2.518,0-5.037-.01-7.555.007a1.119,1.119,0,0,1-1.23-.788v-.391a1.033,1.033,0,0,1,.783-.758,1.584,1.584,0,0,1,.31-.022h7.93v-.238q0-3.875,0-7.751a.976.976,0,1,1,1.95-.058c.007.768,0,1.536,0,2.3q0,2.743,0,5.486v.257h.238q3.885,0,7.77,0a.97.97,0,0,1,.937,1.345.936.936,0,0,1-.917.606c-.709.006-1.419,0-2.128,0h-5.9v.237c0,2.518-.01,5.037.007,7.556a1.118,1.118,0,0,1-.788,1.229Z" transform="translate(-154.667 -503.389)" fill="#fff"/>
</svg>
