<svg width="24" height="24" viewBox="0 0 24 24" fill="none" xmlns="http://www.w3.org/2000/svg">
<g clip-path="url(#clip0_2591_3591)">
<path d="M17.8205 10.4844L16.9222 15.7495C16.8723 16.0489 16.6103 16.2735 16.3108 16.2735H7.72692C7.42748 16.2735 7.16547 16.0489 7.11556 15.7495L6.21725 10.4844C6.17982 10.2598 6.26715 10.0227 6.4543 9.88548C6.64145 9.74824 6.89098 9.72328 7.10309 9.8231L9.51107 10.9959L11.4824 7.44006C11.707 7.04081 12.3557 7.04081 12.5678 7.44006L14.5391 10.9959L16.9471 9.8231C17.1592 9.72328 17.4088 9.74824 17.5959 9.88548C17.7831 10.0227 17.8704 10.2598 17.833 10.4844H17.8205Z" fill="white"/>
<path d="M21.476 14.0656L20.7523 12.481C20.6151 12.1816 20.6151 11.8322 20.7523 11.5328L21.476 9.94828C21.7504 9.36188 21.7629 8.67567 21.5134 8.07679C21.2639 7.47791 20.7773 7.0038 20.1659 6.77922L18.5315 6.16787C18.2196 6.05558 17.9825 5.80605 17.8577 5.49413L17.2464 3.8597C17.0218 3.24834 16.5477 2.76175 15.9363 2.51222C15.3375 2.26269 14.6513 2.27517 14.0649 2.54965L12.4803 3.27329C12.1809 3.41054 11.8315 3.41054 11.5321 3.27329L9.94757 2.54965C9.36117 2.27517 8.67496 2.26269 8.07608 2.51222C7.4772 2.76175 7.00309 3.24834 6.76604 3.8597L6.15468 5.49413C6.04239 5.80605 5.79286 6.0431 5.48095 6.16787L3.84651 6.77922C3.23516 7.0038 2.74857 7.47791 2.49904 8.07679C2.24951 8.67567 2.26198 9.36188 2.53647 9.94828L3.26011 11.5328C3.39735 11.8322 3.39735 12.1816 3.26011 12.481L2.53647 14.0656C2.26198 14.652 2.24951 15.3382 2.49904 15.937C2.74857 16.5359 3.23516 17.01 3.84651 17.2346L5.48095 17.846C5.79286 17.9583 6.02992 18.2078 6.15468 18.5197L6.76604 20.1541C6.99062 20.7655 7.46473 21.2521 8.07608 21.5016C8.36304 21.6264 8.67496 21.6763 8.9744 21.6763C9.31126 21.6763 9.63566 21.6014 9.94757 21.4642L11.5321 20.7405C11.8315 20.6033 12.1809 20.6033 12.4803 20.7405L14.0649 21.4642C14.6513 21.7387 15.3375 21.7511 15.9363 21.5016C16.5352 21.2521 17.0093 20.7655 17.2464 20.1541L17.8577 18.5197C17.97 18.2078 18.2196 17.9707 18.5315 17.846L20.1659 17.2346C20.7773 17.01 21.2639 16.5359 21.5134 15.937C21.7629 15.3382 21.7504 14.652 21.476 14.0656ZM17.6456 10.4224L16.7723 15.5378C16.7224 15.8248 16.4728 16.0369 16.1734 16.0369H7.83902C7.53959 16.0369 7.29005 15.8248 7.24015 15.5378L6.36679 10.4224C6.32936 10.1978 6.41669 9.97323 6.60384 9.83599C6.79099 9.69875 7.02805 9.67379 7.22767 9.77361L9.5608 10.909L11.4822 7.46543C11.6943 7.07866 12.3306 7.07866 12.5427 7.46543L14.4641 10.909L16.7972 9.77361C16.9969 9.67379 17.2464 9.69875 17.4211 9.83599C17.6082 9.97323 17.6955 10.1978 17.6581 10.4224H17.6456Z" fill="#FFA928"/>
<path d="M15.0382 22.0005C14.6639 22.0005 14.2772 21.9256 13.9278 21.7634L12.3433 21.0397C12.1312 20.9399 11.8692 20.9399 11.6571 21.0397L10.0725 21.7634C9.42376 22.0628 8.62526 22.0753 7.95152 21.8008C7.2653 21.5139 6.72881 20.9649 6.47928 20.2662L5.86792 18.6318C5.78059 18.4072 5.60592 18.2325 5.38134 18.1452L3.7469 17.5338C3.06069 17.2718 2.49924 16.7353 2.22476 16.0616C1.95027 15.3878 1.96275 14.6018 2.26219 13.9406L2.98583 12.356C3.08564 12.1315 3.08564 11.8819 2.98583 11.6698L2.26219 10.0853C1.96275 9.41155 1.93779 8.638 2.22476 7.96427C2.51172 7.29053 3.06069 6.74156 3.7469 6.49203L5.38134 5.88067C5.60592 5.79334 5.78059 5.61866 5.86792 5.39409L6.47928 3.75965C6.74129 3.07344 7.27778 2.51199 7.95152 2.2375C8.63773 1.95054 9.41128 1.96302 10.0725 2.27493L11.6571 2.99858C11.8692 3.09839 12.1312 3.09839 12.3433 2.99858L13.9278 2.27493C14.6016 1.9755 15.3751 1.96302 16.0488 2.2375C16.7351 2.52447 17.2715 3.07344 17.5211 3.77213L18.1324 5.40656C18.2198 5.63114 18.3944 5.80581 18.619 5.89315L20.2535 6.5045C20.9397 6.76651 21.5011 7.30301 21.7756 7.97674C22.0501 8.65048 22.0376 9.43651 21.7382 10.0978L21.0145 11.6823C20.9147 11.9069 20.9147 12.1564 21.0145 12.3685L21.7382 13.953C22.0376 14.6268 22.0501 15.4003 21.7756 16.0741C21.4886 16.7478 20.9397 17.2968 20.2535 17.5463L18.619 18.1577C18.3944 18.245 18.2198 18.4197 18.1324 18.6442L17.5211 20.2787C17.2591 20.9649 16.7226 21.5263 16.0488 21.8008C15.7244 21.9381 15.3751 22.0005 15.0258 22.0005H15.0382ZM12.0064 20.3411C12.206 20.3411 12.4181 20.3785 12.6053 20.4658L14.1898 21.1895C14.7014 21.4265 15.3002 21.4265 15.8118 21.2144C16.3358 21.0023 16.7475 20.5656 16.9472 20.0416L17.5585 18.4072C17.7082 18.0079 18.0201 17.696 18.4069 17.5588L20.0414 16.9474C20.5654 16.7478 21.002 16.3361 21.2142 15.8121C21.4263 15.288 21.4263 14.7016 21.1892 14.1901L20.4656 12.6056C20.2909 12.2188 20.2909 11.7821 20.4656 11.3953L21.1892 9.8108C21.4263 9.29926 21.4263 8.70039 21.2142 8.17637C21.002 7.65235 20.5778 7.24062 20.0414 7.041L18.4069 6.42964C18.0077 6.27992 17.7082 5.96801 17.5585 5.58123L16.9472 3.9468C16.7475 3.42278 16.3358 2.9861 15.8118 2.774C15.2878 2.5619 14.7014 2.57437 14.1898 2.79895L12.6053 3.52259C12.2185 3.69727 11.7818 3.69727 11.3951 3.52259L9.81053 2.79895C9.29899 2.5619 8.70011 2.54942 8.18857 2.774C7.66456 2.9861 7.25283 3.4103 7.0532 3.9468L6.44185 5.58123C6.29213 5.98049 5.98021 6.27992 5.59344 6.42964L3.959 7.041C3.43499 7.24062 3.01078 7.65235 2.7862 8.17637C2.5741 8.70039 2.5741 9.28679 2.81116 9.79833L3.5348 11.3829C3.70947 11.7696 3.70947 12.2063 3.5348 12.5931L2.81116 14.1776C2.5741 14.6892 2.56162 15.288 2.7862 15.7996C2.99831 16.3236 3.42251 16.7353 3.959 16.9349L5.59344 17.5463C5.99269 17.696 6.30461 18.0079 6.44185 18.3947L7.0532 20.0291C7.25283 20.5532 7.66456 20.9898 8.18857 21.2019C8.70011 21.414 9.31147 21.4016 9.81053 21.177L11.4075 20.4533C11.5947 20.366 11.8068 20.3286 12.0064 20.3286V20.3411ZM16.1736 16.3485H7.83923C7.39007 16.3485 7.01577 16.0242 6.92844 15.5875L6.05507 10.4721C5.99269 10.1352 6.12993 9.78585 6.40442 9.58623C6.6789 9.37412 7.04073 9.34917 7.35264 9.49889L9.42376 10.5095L11.1954 7.32796C11.4949 6.77899 12.493 6.77899 12.8049 7.32796L14.5766 10.5095L16.6477 9.49889C16.9596 9.34917 17.3215 9.3866 17.5959 9.58623C17.8704 9.79833 18.0077 10.1352 17.9453 10.4721L17.0719 15.5875C16.9971 16.0242 16.6103 16.3485 16.1736 16.3485ZM6.95339 10.0229C6.95339 10.0229 6.82862 10.0479 6.77872 10.0853C6.69138 10.1477 6.64147 10.26 6.66643 10.3723L7.53979 15.4877C7.56474 15.6249 7.68951 15.7372 7.82675 15.7372H16.1611C16.3108 15.7372 16.4231 15.6374 16.4481 15.4877L17.3214 10.3723C17.3339 10.26 17.2965 10.1601 17.2092 10.0853C17.1218 10.0229 17.0095 10.0104 16.9097 10.0603L14.3021 11.333L12.2435 7.6274C12.1437 7.44025 11.8317 7.44025 11.7319 7.6274L9.67329 11.333L7.06568 10.0603C7.06568 10.0603 6.97834 10.0354 6.94091 10.0354L6.95339 10.0229Z" fill="#BB8028"/>
</g>
<defs>
<clipPath id="clip0_2591_3591">
<rect width="20" height="20" fill="white" transform="translate(2 2)"/>
</clipPath>
</defs>
</svg>
