<svg width="24" height="24" viewBox="0 0 24 24" fill="none" xmlns="http://www.w3.org/2000/svg">
<g clip-path="url(#clip0_1867_3678)">
<path d="M20 18.2V21.25C20.01 21.35 20 21.46 19.97 21.56C19.93 21.65 19.88 21.74 19.81 21.81C19.73 21.88 19.64 21.94 19.55 21.97C19.45 22 19.35 22.01 19.25 22H3.79C3.24 22 3 21.76 3 21.23V18.19C3 16.93 3.46 15.72 4.29 14.77C5.11 13.83 6.26 13.21 7.5 13.04C7.77 13.01 8.04 12.99 8.32 12.99H14.69C15.38 12.97 16.07 13.1 16.72 13.35C17.36 13.6 17.95 13.98 18.45 14.47C18.94 14.96 19.33 15.54 19.6 16.18C19.87 16.82 20 17.5 20 18.2Z" fill="#087C7C"/>
<path d="M15.7699 7.46989C15.5799 8.32989 15.1299 9.11989 14.4999 9.73989C13.8599 10.3599 13.0499 10.7699 12.1799 10.9299C11.3099 11.0899 10.4099 10.9899 9.59986 10.6499C8.77986 10.2999 8.08986 9.71989 7.59986 8.97989C7.10986 8.22989 6.85986 7.36989 6.85986 6.47989C6.87986 5.26989 7.38986 4.11989 8.24986 3.27989C9.11986 2.43989 10.2899 1.97989 11.4999 1.99989C12.3799 2.01989 13.2399 2.30989 13.9599 2.81989C14.6899 3.32989 15.2499 4.04989 15.5699 4.86989C15.8899 5.69989 15.9599 6.59989 15.7699 7.46989Z" fill="#087C7C"/>
</g>
<defs>
<clipPath id="clip0_1867_3678">
<rect width="17" height="20" fill="white" transform="translate(3 2)"/>
</clipPath>
</defs>
</svg>
