<?xml version="1.0" encoding="UTF-8"?>
<svg id="Layer_2" data-name="Layer 2" xmlns="http://www.w3.org/2000/svg" viewBox="0 0 62 46">
  <defs>
    <style>
      .cls-1 {
        stroke-width: 0px;
      }
    </style>
  </defs>
  <g id="Layer_1-2" data-name="Layer 1">
    <g id="Properties">
      <path class="cls-1" d="M61,46H1c-.55,0-1-.45-1-1s.45-1,1-1h60c.55,0,1,.45,1,1s-.45,1-1,1Z"/>
      <path class="cls-1" d="M56,46c-.55,0-1-.45-1-1v-19c0-.55.45-1,1-1s1,.45,1,1v19c0,.55-.45,1-1,1Z"/>
      <path class="cls-1" d="M22,46c-.55,0-1-.45-1-1v-19c0-.55.45-1,1-1s1,.45,1,1v19c0,.55-.45,1-1,1Z"/>
      <path class="cls-1" d="M58.1,23.63c-.22,0-.44-.07-.62-.22-.43-.34-.5-.97-.16-1.41l2.28-2.86L39,2.29l-9.37,7.66c-.43.35-1.06.29-1.41-.14-.35-.43-.29-1.06.14-1.41L38.37.23c.37-.3.9-.3,1.27,0l22,18c.42.35.49.97.15,1.4l-2.9,3.63c-.2.25-.49.38-.78.38Z"/>
      <path class="cls-1" d="M19.9,23.63c-.29,0-.58-.13-.78-.38l-2.9-3.63c-.34-.43-.28-1.05.15-1.4l6-4.91c.43-.35,1.06-.29,1.41.14.35.43.29,1.06-.14,1.41l-5.24,4.28,2.28,2.86c.34.43.27,1.06-.16,1.41-.18.15-.4.22-.62.22Z"/>
      <path class="cls-1" d="M58.1,23.63c-.22,0-.45-.07-.63-.23l-18.47-15.11-18.47,15.11c-.43.35-1.06.29-1.41-.14-.35-.43-.29-1.06.14-1.41l19.1-15.63c.37-.3.9-.3,1.27,0l19.1,15.63c.43.35.49.98.14,1.41-.2.24-.48.37-.77.37Z"/>
      <path class="cls-1" d="M45,42c-.55,0-1-.45-1-1v-16h-10v16c0,.55-.45,1-1,1s-1-.45-1-1v-17c0-.55.45-1,1-1h12c.55,0,1,.45,1,1v17c0,.55-.45,1-1,1Z"/>
      <path class="cls-1" d="M23,15.09c-.55,0-1-.45-1-1V4c0-.55.45-1,1-1h6c.55,0,1,.45,1,1v5.18c0,.55-.45,1-1,1s-1-.45-1-1v-4.18h-4v9.09c0,.55-.45,1-1,1Z"/>
      <path class="cls-1" d="M41,37c-.55,0-1-.45-1-1v-2c0-.55.45-1,1-1s1,.45,1,1v2c0,.55-.45,1-1,1Z"/>
      <path class="cls-1" d="M10,39c-5.89,0-10-6.17-10-15s4.11-15,10-15c3.1.09,5.92,1.82,7.39,4.52.26.49.08,1.09-.4,1.36-.49.26-1.09.08-1.36-.4-1.13-2.08-3.3-3.41-5.66-3.48-4.61,0-7.97,5.47-7.97,13s3.36,13,8,13c4.2,0,7.39-4.45,7.92-11.08.04-.55.53-.95,1.08-.92.55.04.96.53.92,1.08-.62,7.73-4.61,12.92-9.92,12.92Z"/>
      <path class="cls-1" d="M10,46c-.55,0-1-.45-1-1v-26c0-.55.45-1,1-1s1,.45,1,1v26c0,.55-.45,1-1,1Z"/>
      <path class="cls-1" d="M10,32c-.3,0-.6-.14-.8-.4-.33-.44-.24-1.07.2-1.4l4-3c.44-.33,1.07-.24,1.4.2.33.44.24,1.07-.2,1.4l-4,3c-.18.13-.39.2-.6.2Z"/>
      <path class="cls-1" d="M10,27c-.3,0-.6-.14-.8-.4l-3-4c-.33-.44-.24-1.07.2-1.4.44-.33,1.07-.24,1.4.2l3,4c.33.44.24,1.07-.2,1.4-.18.13-.39.2-.6.2Z"/>
    </g>
  </g>
</svg>