<?xml version="1.0" encoding="UTF-8"?>
<!-- Generator: visioncortex VTracer 0.6.3 -->
<svg version="1.1" xmlns="http://www.w3.org/2000/svg" width="250" height="250">
<path d="M0 0 C2.19 2.62 2.19 2.62 2.88 5.19 C1.87 8.75 0.31 9.67 -2.81 11.62 C-8.87 14.56 -13.44 14.78 -20.12 14.45 C-38.29 13.58 -54 17.46 -71.3 22.51 C-75.64 23.76 -80 24.97 -84.35 26.18 C-87.73 27.12 -91.1 28.06 -94.46 29.03 C-95.65 29.37 -96.83 29.71 -98.06 30.06 C-99.1 30.37 -100.14 30.67 -101.22 30.98 C-103.81 31.62 -103.81 31.62 -106.81 31.62 C-106.79 32.57 -106.77 33.52 -106.75 34.5 C-106.81 37.62 -106.81 37.62 -107.81 39.62 C-107.21 39.8 -106.62 39.97 -106 40.15 C-99.62 42.01 -93.4 44.16 -87.17 46.47 C-86.18 46.83 -85.19 47.2 -84.16 47.58 C-80.96 48.76 -77.76 49.94 -74.56 51.12 C-72.35 51.94 -70.14 52.76 -67.93 53.57 C-63.56 55.18 -59.19 56.79 -54.82 58.41 C-49.68 60.31 -44.53 62.2 -39.38 64.08 C-38.69 64.33 -38 64.58 -37.29 64.84 C-34.24 65.96 -31.19 67.07 -28.14 68.19 C-27.08 68.58 -26.01 68.96 -24.92 69.36 C-23.91 69.73 -22.89 70.1 -21.85 70.47 C-19.77 71.26 -17.71 72.11 -15.67 73 C-7.23 76.62 0.06 77.31 9.19 77.25 C22.9 77.25 35.96 77.88 47.19 86.62 C49.53 90.14 49.68 91.49 49.19 95.62 C45.49 102.09 38.88 104.28 32.06 106.31 C25.16 107.96 18.18 108.07 11.1 108.16 C10.2 108.18 9.29 108.2 8.36 108.22 C7.15 108.23 7.15 108.23 5.92 108.24 C-1.98 109.35 -9.26 113.71 -16.3 117.25 C-17.4 117.8 -18.5 118.35 -19.63 118.92 C-21.95 120.08 -24.27 121.24 -26.59 122.41 C-30.07 124.16 -33.56 125.91 -37.05 127.65 C-48.7 133.49 -60.31 139.4 -71.81 145.52 C-75.78 147.62 -79.79 149.63 -83.81 151.62 C-83.73 152.82 -83.65 154.02 -83.56 155.25 C-83.59 159.8 -84.73 162.16 -87.81 165.62 C-103.61 178.89 -128.3 178.77 -147.81 177.62 C-161.19 176.36 -174.47 172.79 -183.81 162.62 C-185.44 159.38 -185.35 156.14 -184.81 152.62 C-180.84 145.53 -173.24 142.22 -165.66 139.99 C-156.11 137.51 -146.67 136.18 -136.82 136 C-126.54 135.37 -116.88 131.29 -107.44 127.5 C-104.72 126.42 -102 125.36 -99.28 124.29 C-98.55 124.01 -97.82 123.72 -97.06 123.43 C-84.84 118.66 -72.5 114.2 -60.18 109.68 C-48.67 105.45 -37.22 101.12 -25.81 96.62 C-26 95.88 -26.18 95.14 -26.38 94.38 C-26.8 91.68 -26.66 90.18 -25.81 87.62 C-26.65 87.29 -27.49 86.95 -28.35 86.6 C-31.75 85.22 -35.15 83.85 -38.54 82.47 C-40.14 81.82 -41.74 81.18 -43.34 80.53 C-54.56 75.98 -65.77 71.42 -76.98 66.84 C-80.63 65.34 -84.28 63.85 -87.94 62.36 C-90.35 61.37 -92.75 60.39 -95.16 59.4 C-98.58 58 -102 56.6 -105.42 55.2 C-106.44 54.78 -107.46 54.37 -108.51 53.94 C-119.73 48.99 -119.73 48.99 -131.7 47.47 C-133.25 47.52 -133.25 47.52 -134.83 47.57 C-135.9 47.61 -136.97 47.65 -138.06 47.69 C-149.49 47.9 -160.73 47.51 -169.81 39.62 C-171.81 37.19 -171.81 37.19 -172.81 34.62 C-171.37 29.54 -168.91 27.68 -164.55 24.98 C-153.26 19.39 -140.4 19.83 -128.2 21.38 C-117.92 22.45 -108.74 20.81 -98.78 18.34 C-97.37 18.01 -95.97 17.67 -94.56 17.33 C-90.89 16.46 -87.22 15.57 -83.55 14.67 C-77.66 13.23 -71.76 11.82 -65.86 10.41 C-63.81 9.91 -61.76 9.41 -59.72 8.91 C-58.47 8.61 -57.23 8.31 -55.95 8 C-54.86 7.74 -53.77 7.47 -52.64 7.19 C-49.81 6.62 -49.81 6.62 -45.81 6.62 C-45.75 5.88 -45.69 5.14 -45.62 4.38 C-44.54 0.72 -42.96 -0.3 -39.81 -2.38 C-28.8 -7.74 -10.03 -7.48 0 0 Z " fill="#020202" transform="translate(192.8125,68.375)"/>
<path d="M0 0 C4.8 2.44 7.69 5.12 10 10 C12.35 25.01 2.86 38.39 -4 51 C-4.99 51 -5.98 51 -7 51 C-23.96 19.58 -23.96 19.58 -20.94 9.44 C-16.03 0.74 -9.63 -2.11 0 0 Z M-11 10 C-12.56 13.12 -12.36 15.57 -12 19 C-9.2 21.64 -7.65 22.01 -3.81 21.94 C-0.98 21.26 -0.98 21.26 0.44 19.38 C1.25 15.94 0.88 13.4 0 10 C-3.77 7.11 -7.08 7.65 -11 10 Z " fill="#030303" transform="translate(177,5)"/>
</svg>
