<svg fill="none" height="24" viewBox="0 0 24 24" width="24" xmlns="http://www.w3.org/2000/svg"><path d="m10.8237 12.4421c.9726-1.7558 2.8421-2.79157 3.9284-4.34526 1.1495-1.62947.5053-4.67368-2.7537-4.67368-2.13473 0-3.18315 1.61684-3.62526 2.95579l-3.27158-1.37684c.89684-2.69053 3.33474-5.00211 6.88424-5.00211 2.9684 0 5.0021 1.35158 6.0379 3.04421.8842 1.45263 1.4021 4.16842.0379 6.18947-1.5158 2.23582-2.9685 2.91792-3.7516 4.35792-.3158.581-.4421.96-.4421 2.8295h-3.6505c-.0127-.9853-.1643-2.5895.6063-3.979zm3.701 9.0316c0 1.3895-1.1368 2.5263-2.5263 2.5263s-2.52631-1.1368-2.52631-2.5263 1.13681-2.5263 2.52631-2.5263 2.5263 1.1368 2.5263 2.5263z" fill="#087c7c"/></svg>