<svg width="20" height="20" viewBox="0 0 20 20" fill="none" xmlns="http://www.w3.org/2000/svg">
<g clip-path="url(#clip0_1320_16296)">
<path d="M15.5199 1.20337C15.8829 1.29025 16.2395 1.40164 16.5874 1.53672C17.1486 1.80432 17.6151 2.23646 17.9247 2.77563C18.2344 3.31481 18.3725 3.93552 18.3207 4.55511C18.2659 5.18711 18.018 5.78696 17.6108 6.27336C17.2036 6.75975 16.6566 7.10913 16.0441 7.27423C15.5017 7.43158 14.9262 7.43528 14.3818 7.28491C13.8375 7.13454 13.3455 6.83603 12.9607 6.42259C12.9216 6.37899 12.8852 6.33304 12.8516 6.28505L12.3999 6.55422C10.8844 7.457 9.36825 8.359 7.85159 9.26011C7.72825 9.33344 7.68491 9.39175 7.73908 9.53925C7.96164 10.1316 7.97545 10.7822 7.77824 11.3834L12.6733 13.8651C12.87 13.6586 13.0787 13.4637 13.2983 13.2817C13.7643 12.8978 14.336 12.6644 14.9376 12.6125C15.5392 12.5605 16.1424 12.6925 16.6674 12.9909C17.2031 13.2501 17.6476 13.6658 17.942 14.183C18.2365 14.7002 18.3671 15.2946 18.3166 15.8876C18.2646 16.6573 17.9296 17.3805 17.3761 17.9178C16.8226 18.4552 16.0898 18.7688 15.3189 18.7981C14.548 18.8274 13.7936 18.5704 13.2009 18.0765C12.6083 17.5827 12.2193 16.8869 12.1091 16.1234C12.0536 15.7254 12.0842 15.3201 12.1991 14.9351C12.2257 14.8451 12.2191 14.7925 12.1241 14.745C10.5385 13.945 8.9552 13.1434 7.37409 12.34C7.35805 12.3342 7.34161 12.3295 7.3249 12.3259C7.01277 12.7571 6.59512 13.1008 6.11198 13.3242C5.62884 13.5476 5.09643 13.6432 4.56576 13.6017C3.79435 13.5636 3.06835 13.2257 2.54244 12.6601C1.97735 12.0868 1.66194 11.3132 1.66506 10.5083C1.66818 9.70331 1.98955 8.93228 2.55907 8.3634C2.86107 8.05749 3.22269 7.81684 3.62149 7.65641C4.0203 7.49598 4.44779 7.41922 4.87749 7.43079C5.3072 7.44235 5.72996 7.54201 6.11956 7.72365C6.50916 7.9053 6.8573 8.16498 7.14241 8.48669L12.2991 5.41429C12.1465 5.01574 12.0745 4.59086 12.0874 4.16429C12.126 3.44325 12.414 2.75798 12.9021 2.22591C13.3903 1.69384 14.0482 1.34806 14.7633 1.24762C14.808 1.23878 14.8523 1.22736 14.8958 1.21344L15.5199 1.20337Z" fill="#087C7C"/>
</g>
<defs>
<clipPath id="clip0_1320_16296">
<rect width="20" height="20" fill="white"/>
</clipPath>
</defs>
</svg>
