<svg width="24" height="24" viewBox="0 0 24 24" fill="none" xmlns="http://www.w3.org/2000/svg">
<path fill-rule="evenodd" clip-rule="evenodd" d="M0.421875 4.25367C0.421875 3.37729 1.13888 2.66025 2.0153 2.66025H2.74158C2.81902 2.66025 2.8822 2.72344 2.8822 2.80087V17.2623C2.8822 17.3398 2.81902 17.4029 2.74158 17.4029H2.0153C1.42252 17.4029 0.85575 17.6277 0.421875 18.0311V4.25367ZM17.3567 16.2139L21.1161 9.70251L22.8242 10.6887L19.0648 17.2001L17.3567 16.2139ZM21.4902 9.05451L23.1983 10.0407L23.5183 9.48651C23.6417 9.27276 23.568 8.99775 23.3542 8.87433L22.4224 8.33629C22.2086 8.21287 21.9336 8.28656 21.8102 8.50031L21.4902 9.05451ZM18.5381 17.76L17.1352 16.95L17.0217 18.2936C17.0032 18.5132 17.2502 18.6559 17.4312 18.53L18.5381 17.76ZM0.421875 19.7463C0.421875 20.6227 1.13888 21.3398 2.0153 21.3398H21.5933V14.3206L19.444 18.0434L17.8596 19.1457C17.5367 19.3703 17.117 19.388 16.7764 19.1914C16.4354 18.9944 16.2413 18.623 16.2744 18.2305L16.4369 16.3072L21.1607 8.1254C21.2683 7.93898 21.4191 7.7924 21.5933 7.69101V5.74233H3.6322V18.0123C3.6322 18.0898 3.56902 18.1529 3.49158 18.1529H2.0153C1.13892 18.1529 0.421875 18.8699 0.421875 19.7463ZM10.4752 7.09401C10.678 6.9404 10.964 6.93698 11.1747 7.08998L16.2156 10.7524C16.4794 10.9441 16.5384 11.3133 16.3471 11.5773C16.1557 11.8415 15.7858 11.9007 15.5218 11.7089L10.8277 8.29842L6.13364 11.7089C5.86964 11.9007 5.4997 11.8415 5.30831 11.5773C5.11702 11.3133 5.17608 10.9441 5.4398 10.7524L10.4752 7.09401ZM14.8411 12.1414V16.5972C14.8411 16.8633 14.6241 17.0803 14.358 17.0803H12.7976V13.632C12.7976 13.046 12.3195 12.5679 11.7336 12.5679H9.92184C9.33586 12.5679 8.85778 13.046 8.85778 13.632V17.0803H7.2975C7.03134 17.0803 6.81436 16.8633 6.81436 16.5972V12.1414L10.8278 9.22547L14.8411 12.1414ZM12.0476 17.0803H9.60778V13.632C9.60778 13.46 9.74986 13.3179 9.92184 13.3179H11.7336C11.9055 13.3179 12.0476 13.46 12.0476 13.632V17.0803ZM15.7575 18.2028C15.9645 18.2028 16.1325 18.3707 16.1325 18.5778C16.1325 18.7849 15.9645 18.9528 15.7575 18.9528H15.3599C15.1528 18.9528 14.9849 18.7849 14.9849 18.5778C14.9849 18.3707 15.1528 18.2028 15.3599 18.2028H15.7575ZM14.1878 18.2028C14.3949 18.2028 14.5628 18.3707 14.5628 18.5778C14.5628 18.7849 14.3949 18.9528 14.1878 18.9528H13.7903C13.5832 18.9528 13.4153 18.7849 13.4153 18.5778C13.4153 18.3707 13.5832 18.2028 13.7903 18.2028H14.1878ZM12.6183 18.2028C12.8254 18.2028 12.9933 18.3707 12.9933 18.5778C12.9933 18.7849 12.8254 18.9528 12.6183 18.9528H12.2207C12.0136 18.9528 11.8457 18.7849 11.8457 18.5778C11.8457 18.3707 12.0136 18.2028 12.2207 18.2028H12.6183ZM11.0487 18.2028C11.2558 18.2028 11.4237 18.3707 11.4237 18.5778C11.4237 18.7849 11.2558 18.9528 11.0487 18.9528H10.6511C10.444 18.9528 10.2761 18.7849 10.2761 18.5778C10.2761 18.3707 10.444 18.2028 10.6511 18.2028H11.0487ZM9.47911 18.2028C9.6862 18.2028 9.85411 18.3707 9.85411 18.5778C9.85411 18.7849 9.6862 18.9528 9.47911 18.9528H9.08156C8.87447 18.9528 8.70656 18.7849 8.70656 18.5778C8.70656 18.3707 8.87447 18.2028 9.08156 18.2028H9.47911ZM7.9095 18.2028C8.11659 18.2028 8.2845 18.3707 8.2845 18.5778C8.2845 18.7849 8.11659 18.9528 7.9095 18.9528H7.51195C7.30486 18.9528 7.13695 18.7849 7.13695 18.5778C7.13695 18.3707 7.30486 18.2028 7.51195 18.2028H7.9095ZM6.33994 18.2028C6.54703 18.2028 6.71494 18.3707 6.71494 18.5778C6.71494 18.7849 6.54703 18.9528 6.33994 18.9528H5.94239C5.7353 18.9528 5.56739 18.7849 5.56739 18.5778C5.56739 18.3707 5.7353 18.2028 5.94239 18.2028H6.33994Z" fill="#087C7C"/>
</svg>
