<svg width="20" height="20" viewBox="0 0 20 20" fill="none" xmlns="http://www.w3.org/2000/svg">
<path d="M10 20C4.48604 20 0 15.514 0 10C0 4.48604 4.48604 0 10 0C15.514 0 20 4.48604 20 10C20 15.514 15.514 20 10 20ZM10 0.858714C4.95981 0.858714 0.858717 4.95981 0.858717 10C0.858717 15.0402 4.95981 19.1413 10 19.1413C15.0402 19.1413 19.1413 15.0402 19.1413 10C19.1413 4.95981 15.0412 0.858714 10 0.858714Z" fill="#087C7C" fill-opacity="0.5"/>
<path d="M8.5364 5.30896C8.96153 4.25989 9.87418 3.73535 11.2754 3.73535H11.5842C12.4345 3.73535 12.8585 3.79457 12.8585 3.91513V5.73725H11.6434C10.9127 5.80388 10.5478 6.14863 10.5478 6.77258V8.2362C10.5478 8.31551 10.588 8.3557 10.6673 8.3557H12.739V8.4752C12.6132 9.8098 12.5095 10.4771 12.4302 10.4771H10.6673C10.6007 10.4771 10.5616 10.5205 10.5478 10.6061V16.2628H8.38623L8.35662 15.8948V10.6664C8.2974 10.5406 8.23712 10.4771 8.1779 10.4771H7.14258V8.3557H8.1779C8.2974 8.28907 8.35662 8.22668 8.35662 8.1664L8.2974 6.284C8.37672 5.85253 8.45709 5.52681 8.5364 5.3079V5.30896Z" fill="#087C7C"/>
</svg>
