<svg width="20" height="20" viewBox="0 0 20 20" fill="none" xmlns="http://www.w3.org/2000/svg">
<g clip-path="url(#clip0_2595_3796)">
<path d="M10 20.0005C4.48604 20.0005 0 15.5144 0 10.0005C0 4.48653 4.48604 0.000488281 10 0.000488281C15.514 0.000488281 20 4.48653 20 10.0005C20 15.5144 15.514 20.0005 10 20.0005ZM10 0.859202C4.95981 0.859202 0.858714 4.9603 0.858714 10.0005C0.858714 15.0407 4.95981 19.1418 10 19.1418C15.0402 19.1418 19.1413 15.0407 19.1413 10.0005C19.1413 4.9603 15.0402 0.859202 10 0.859202Z" fill="#087C7C" fill-opacity="0.5"/>
<path d="M4.6466 6.82682C5.17748 5.286 6.23289 4.51611 7.8139 4.51611H12.246L13.0127 4.57533L13.7699 4.82385C14.9057 5.32195 15.4725 6.37419 15.4725 7.98058V12.0542C15.4725 13.3285 15.1278 14.2422 14.4372 14.7932C14.1316 15.2384 12.9567 15.4605 10.9114 15.4605C8.2422 15.5335 6.66225 15.4309 6.1705 15.1517C5.0749 14.5743 4.5271 13.4226 4.5271 11.6957V8.52838C4.5271 7.86425 4.56729 7.29636 4.6466 6.82576V6.82682ZM5.99072 6.27902C5.665 6.27902 5.5032 7.29213 5.5032 9.31624V10.6604C5.5032 11.7422 5.54339 12.5523 5.6227 13.0906C5.88179 14.0603 6.77435 14.5447 8.30142 14.5447C9.21724 14.5045 10.0876 14.4854 10.9103 14.4854H12.6733C13.7223 14.4854 14.3494 13.7357 14.5557 12.235V7.92242C14.5557 6.30228 13.7858 5.49221 12.245 5.49221H7.99262C6.98374 5.49221 6.31644 5.75448 5.99072 6.27902ZM7.3856 9.13752C7.87735 7.8431 8.74982 7.19589 10.0051 7.19589H10.0643C10.629 7.19589 11.1726 7.37885 11.6972 7.74369C12.467 8.40148 12.852 9.10791 12.852 9.8651V9.99412C12.852 11.3287 12.1255 12.2583 10.6713 12.7828H9.45624C7.95561 12.272 7.20582 11.3626 7.20582 10.0544C7.2587 9.52986 7.31898 9.22424 7.3856 9.13858V9.13752ZM8.1724 10.0533C8.20519 10.3917 8.24855 10.5948 8.30142 10.6614C8.66627 11.4715 9.25426 11.8765 10.0643 11.8765C11.087 11.8765 11.694 11.2494 11.8864 9.99412C11.8864 9.76146 11.8664 9.61869 11.8272 9.56582C11.5279 8.6299 10.941 8.16142 10.0643 8.16142H10.0051C8.9296 8.16142 8.31834 8.79276 8.1724 10.0533ZM12.9133 6.39852C13.312 6.39852 13.5573 6.64386 13.6504 7.13561C13.478 7.54065 13.2549 7.74369 12.9831 7.74369C12.7113 7.74369 12.485 7.54171 12.3063 7.13561C12.3063 6.77077 12.5093 6.52436 12.9144 6.39852H12.9133Z" fill="#087C7C"/>
</g>
<defs>
<clipPath id="clip0_2595_3796">
<rect width="20" height="20" fill="white"/>
</clipPath>
</defs>
</svg>
