<svg width="20" height="20" viewBox="0 0 20 20" fill="none" xmlns="http://www.w3.org/2000/svg">
<path d="M10 20C4.48604 20 0 15.514 0 10C0 4.48604 4.48604 0 10 0C15.514 0 20 4.48604 20 10C20 15.514 15.514 20 10 20ZM10 0.858714C4.95981 0.858714 0.858714 4.95981 0.858714 10C0.858714 15.0402 4.95981 19.1413 10 19.1413C15.0402 19.1413 19.1413 15.0402 19.1413 10C19.1413 4.95981 15.0402 0.858714 10 0.858714Z" fill="#087C7C" fill-opacity="0.5"/>
<path d="M6.54409 5.21436C7.31397 5.32011 7.69891 5.68601 7.69891 6.30996V6.37024C7.5001 6.97408 7.13419 7.27654 6.60331 7.27654C5.95293 7.27654 5.57116 6.97408 5.45801 6.37024V6.00221C5.71076 5.47768 6.07243 5.21541 6.54409 5.21541V5.21436ZM5.69807 8.06334H7.39118L7.51068 8.30234V13.8195C7.51068 13.8988 7.47049 13.939 7.39118 13.939H5.69807C5.63144 13.939 5.59232 13.8988 5.57857 13.8195V8.18284C5.57857 8.11622 5.61875 8.07709 5.69807 8.06334ZM12.0517 7.94384H12.6587C12.7719 7.94384 13.0733 8.04325 13.565 8.24312C14.2154 8.81419 14.5411 9.4413 14.5411 10.1255V13.94H12.719C12.6524 13.94 12.6133 13.8998 12.5995 13.8205V10.7336C12.5995 9.88335 12.2579 9.45928 11.5737 9.45928C10.9825 9.45928 10.6378 9.88441 10.5384 10.7336V13.8205C10.5384 13.8998 10.4982 13.94 10.4189 13.94H8.72578C8.65915 13.94 8.62002 13.8998 8.60628 13.8205V8.0644H10.5384V8.67142H10.6674C11.119 8.20716 11.5801 7.96393 12.0517 7.9449V7.94384Z" fill="#087C7C"/>
</svg>
