<svg width="20" height="20" viewBox="0 0 20 20" fill="none" xmlns="http://www.w3.org/2000/svg">
<g clip-path="url(#clip0_2595_3802)">
<path d="M10 20.0005C4.48604 20.0005 0 15.5144 0 10.0005C0 4.48653 4.48604 0.000488281 10 0.000488281C15.514 0.000488281 20 4.48653 20 10.0005C20 15.5144 15.514 20.0005 10 20.0005ZM10 0.859202C4.95981 0.859202 0.858714 4.9603 0.858714 10.0005C0.858714 15.0407 4.95981 19.1418 10 19.1418C15.0402 19.1418 19.1413 15.0407 19.1413 10.0005C19.1413 4.9603 15.0402 0.859202 10 0.859202Z" fill="#087C7C" fill-opacity="0.5"/>
<path d="M14.5282 13.9885C14.1084 13.4428 13.6991 12.8887 13.2856 12.3387C12.5813 11.4007 11.8791 10.4627 11.1748 9.52465C11.0067 9.30046 11.0046 9.24758 11.159 9.08472C11.9299 8.26619 12.6913 7.43921 13.4549 6.61433C13.7129 6.33409 13.9953 6.07499 14.2258 5.76937C14.2744 5.7038 14.3442 5.64775 14.2829 5.55469H13.4644C13.3681 5.61497 13.2497 5.63612 13.1736 5.73129C12.9853 5.96501 12.7601 6.16488 12.5623 6.38802C11.9606 7.06378 11.3292 7.71099 10.7222 8.38146C10.5255 8.59826 10.4726 8.58768 10.2992 8.35608C9.68265 7.53333 9.06611 6.71268 8.44957 5.88992C8.35122 5.75773 8.24969 5.63506 8.1027 5.55574H5.27804C5.26217 5.70591 5.33514 5.82436 5.41869 5.93646C5.82372 6.4832 6.2351 7.02571 6.64331 7.57034C7.30426 8.45232 7.96628 9.33536 8.62935 10.2163C8.78057 10.4183 8.78269 10.4743 8.64415 10.6234C8.15134 11.1585 7.65642 11.6915 7.16044 12.2245C6.57562 12.8516 5.99716 13.484 5.40811 14.1069C5.32139 14.1989 5.24314 14.2952 5.27804 14.4358H6.09656C6.17059 14.3882 6.25308 14.3576 6.31864 14.2941C6.64225 13.9811 6.94047 13.6437 7.24504 13.3127C7.85312 12.6497 8.47178 11.9982 9.07668 11.332C9.2755 11.1131 9.29876 11.1215 9.47431 11.3563C10.1733 12.289 10.8724 13.2218 11.5714 14.1556C11.6634 14.2782 11.7628 14.384 11.9098 14.4358C12.7971 14.4358 13.6843 14.4358 14.5705 14.4326C14.6234 14.4326 14.6975 14.4792 14.7345 14.3946C14.6604 14.2613 14.6266 14.1122 14.5304 13.9874L14.5282 13.9885ZM12.2736 13.8246C12.1795 13.8246 12.152 13.7453 12.1097 13.6881C10.7772 11.9126 9.4447 10.1348 8.11221 8.3582C7.62998 7.71522 7.14775 7.07118 6.66657 6.42821C6.61158 6.35418 6.55765 6.27804 6.48045 6.17123C6.89077 6.17123 7.25244 6.17757 7.61306 6.16805C7.73785 6.16488 7.81082 6.20824 7.88273 6.30448C8.95401 7.7406 10.0285 9.17355 11.1029 10.6076C11.858 11.6164 12.6152 12.6232 13.3713 13.631C13.4104 13.6839 13.4464 13.7389 13.5046 13.8235C13.0731 13.8235 12.6744 13.8235 12.2757 13.8235L12.2736 13.8246Z" fill="#087C7C"/>
</g>
<defs>
<clipPath id="clip0_2595_3802">
<rect width="20" height="20" fill="white"/>
</clipPath>
</defs>
</svg>
