<svg width="20" height="20" viewBox="0 0 20 20" fill="none" xmlns="http://www.w3.org/2000/svg">
<path d="M10 20C4.48604 20 0 15.514 0 10C0 4.48604 4.48604 0 10 0C15.514 0 20 4.48604 20 10C20 15.514 15.514 20 10 20ZM10 0.858714C4.95981 0.858714 0.858714 4.95981 0.858714 10C0.858714 15.0402 4.95981 19.1413 10 19.1413C15.0402 19.1413 19.1413 15.0402 19.1413 10C19.1413 4.95981 15.0402 0.858714 10 0.858714Z" fill="#087C7C" fill-opacity="0.5"/>
<path d="M5.01041 8.39181C6.04573 5.97536 7.63942 4.7666 9.79044 4.7666H10.3287C10.8332 4.7666 11.4211 4.8861 12.0916 5.1251C14.1834 6.2408 15.2293 7.8345 15.2293 9.90514C15.2293 11.1202 14.8275 12.2486 14.0237 13.2913C12.8689 14.5466 11.5576 15.1737 10.0897 15.1737H9.85072C9.27965 15.1737 8.49285 14.9718 7.49031 14.5667H7.37081L4.83168 15.234C4.83168 15.1938 4.81159 15.1748 4.77246 15.1748C4.97128 14.5636 5.21345 13.6943 5.50004 12.5659C5.05482 11.6765 4.83274 10.9331 4.83274 10.3345V9.54769C4.83274 9.4081 4.89196 9.02316 5.01252 8.39287L5.01041 8.39181ZM8.15761 5.97219C6.50469 7.01491 5.67771 8.24587 5.67771 9.66719V10.3948C5.67771 10.8527 5.91988 11.5168 6.40529 12.3861C6.40529 12.4855 6.28261 12.99 6.03727 13.8994L6.15677 13.9586H6.27627L7.43109 13.6594H7.60981C8.54573 14.1046 9.35262 14.3267 10.0294 14.3267C10.6206 14.3267 11.327 14.1437 12.1508 13.7789C13.6377 12.6833 14.3822 11.4745 14.3822 10.1537C14.342 10.1537 14.322 10.1304 14.322 10.0839C14.3621 10.0839 14.3822 10.0638 14.3822 10.0236C14.3822 9.50539 14.3029 9.00412 14.1432 8.51977C13.2665 6.58132 11.9161 5.61157 10.0897 5.61157C9.46578 5.61157 8.82174 5.73107 8.15761 5.97007V5.97219ZM8.21683 7.54579H8.39662C8.60283 7.54579 8.84501 7.97092 9.1242 8.82011C9.1242 8.95971 8.98143 9.20188 8.6959 9.54769V9.60691C9.16015 10.4106 9.80842 10.9743 10.6375 11.3L11.3048 10.6327H11.4243C12.208 10.9119 12.6098 11.1139 12.6299 11.2397V11.539C12.6299 11.9705 12.2682 12.2729 11.5438 12.4453H11.1758C10.996 12.4453 10.555 12.2856 9.85072 11.9673C8.1978 10.8315 7.37081 9.76343 7.37081 8.76089C7.37081 8.09676 7.65317 7.69173 8.21683 7.54579Z" fill="#087C7C"/>
</svg>
