<svg width="20" height="20" viewBox="0 0 20 20" fill="none" xmlns="http://www.w3.org/2000/svg">
<g clip-path="url(#clip0_2678_23725)">
<path d="M10 20C4.48604 20 0 15.514 0 10C0 4.48604 4.48604 0 10 0C15.514 0 20 4.48604 20 10C20 15.514 15.514 20 10 20ZM10 0.858714C4.95981 0.858714 0.858714 4.95981 0.858714 10C0.858714 15.0402 4.95981 19.1413 10 19.1413C15.0402 19.1413 19.1413 15.0402 19.1413 10C19.1413 4.95981 15.0402 0.858714 10 0.858714Z" fill="#087C7C" fill-opacity="0.5"/>
<path d="M15.239 6.21063C15.7233 6.5427 15.9655 7.65522 15.9655 9.54714V10.3932C15.9655 11.7278 15.846 12.6975 15.607 13.3014C15.3807 13.8661 14.634 14.1474 13.3661 14.1474H7.90815C6.32821 14.1474 5.31826 14.048 4.88045 13.8481C4.31573 13.5425 4.03442 12.2481 4.03442 9.96381V9.90459C4.0947 7.88576 4.25333 6.79756 4.51243 6.63788C4.51243 6.11334 6.2087 5.85107 9.60126 5.85107C12.9938 5.85107 14.873 5.97058 15.2379 6.20958L15.239 6.21063ZM8.81446 11.5385H9.00376L11.8422 9.96486C11.7692 9.86546 10.7804 9.32083 8.87474 8.33204H8.81552V11.5385H8.81446Z" fill="#087C7C"/>
</g>
<defs>
<clipPath id="clip0_2678_23725">
<rect width="20" height="20" fill="white"/>
</clipPath>
</defs>
</svg>
